<?xml version="1.0" encoding="UTF-8"?>
<svg version="1.1" xmlns="http://www.w3.org/2000/svg" width="500" height="500">
<path d="M0 0 C6.07826374 1.29917088 10.13851745 3.60035431 13.58203125 8.765625 C14.68572996 14.42208087 11.93250729 18.13368598 9.08984375 22.7890625 C8.59226562 23.44132812 8.0946875 24.09359375 7.58203125 24.765625 C6.92203125 24.765625 6.26203125 24.765625 5.58203125 24.765625 C5.24171875 25.8175 5.24171875 25.8175 4.89453125 26.890625 C3.24361837 30.50691035 1.29114775 32.85332476 -1.41796875 35.765625 C-2.07796875 35.765625 -2.73796875 35.765625 -3.41796875 35.765625 C-3.82547363 36.66099976 -3.82547363 36.66099976 -4.24121094 37.57446289 C-5.39563541 39.72403958 -6.52369315 41.11608755 -8.24609375 42.82421875 C-8.79910156 43.37529297 -9.35210937 43.92636719 -9.921875 44.49414062 C-10.49808594 45.05810547 -11.07429688 45.62207031 -11.66796875 46.203125 C-12.50908203 47.04327148 -12.50908203 47.04327148 -13.3671875 47.90039062 C-23.3360241 57.765625 -23.3360241 57.765625 -26.41796875 57.765625 C-26.41796875 58.425625 -26.41796875 59.085625 -26.41796875 59.765625 C-37.60297593 69.10750458 -51.07519559 76.06141647 -64.41796875 81.765625 C-65.16965332 82.08966309 -65.92133789 82.41370117 -66.69580078 82.74755859 C-72.9818693 85.36852108 -79.31939945 87.2299997 -85.91796875 88.890625 C-86.88605469 89.14199219 -87.85414063 89.39335937 -88.8515625 89.65234375 C-134.32196581 101.30985654 -198.72756337 101.5462331 -242.3359375 83.58984375 C-244.00396066 82.92951938 -245.70168539 82.3444317 -247.40625 81.78515625 C-260.32583504 77.49813653 -271.99802883 71.08175311 -283.48046875 63.828125 C-284.08246094 63.45075195 -284.68445313 63.07337891 -285.3046875 62.68457031 C-286.71439466 61.76842768 -288.07271533 60.77403208 -289.41796875 59.765625 C-289.41796875 59.105625 -289.41796875 58.445625 -289.41796875 57.765625 C-290.07796875 57.58 -290.73796875 57.394375 -291.41796875 57.203125 C-295.68702143 55.15753726 -299.15960581 52.19377857 -302.41796875 48.765625 C-302.41796875 48.105625 -302.41796875 47.445625 -302.41796875 46.765625 C-303.07796875 46.765625 -303.73796875 46.765625 -304.41796875 46.765625 C-304.41796875 46.105625 -304.41796875 45.445625 -304.41796875 44.765625 C-305.07796875 44.765625 -305.73796875 44.765625 -306.41796875 44.765625 C-314.50443108 35.86608145 -323.53695386 24.074338 -324.16796875 11.703125 C-323.90865729 7.79040319 -323.49960263 6.87028382 -320.98046875 3.640625 C-320.13484375 3.021875 -319.28921875 2.403125 -318.41796875 1.765625 C-318.08796875 1.435625 -317.75796875 1.105625 -317.41796875 0.765625 C-312.91278717 0.25670634 -308.8139182 0.0514183 -304.73046875 2.140625 C-302.02772581 5.20860348 -299.79168953 8.47073027 -297.4921875 11.84765625 C-290.82000777 21.23394298 -282.91346622 31.51787627 -272.41796875 36.765625 C-272.41796875 37.425625 -272.41796875 38.085625 -272.41796875 38.765625 C-271.64453125 38.91064453 -271.64453125 38.91064453 -270.85546875 39.05859375 C-267.52934839 40.02338187 -264.52051783 41.56599128 -261.41796875 43.078125 C-246.06600426 50.36858956 -230.20069897 53.57497393 -213.41796875 55.828125 C-212.28230469 55.98861328 -211.14664063 56.14910156 -209.9765625 56.31445312 C-206.12817804 56.84038492 -202.27628902 57.31974756 -198.41796875 57.765625 C-197.25527466 57.90073486 -197.25527466 57.90073486 -196.0690918 58.03857422 C-181.25296079 59.70402651 -166.51678864 60.13820621 -151.61376953 60.13623047 C-147.92173654 60.14062052 -144.23088724 60.17715709 -140.5390625 60.21484375 C-119.57780954 60.31392094 -93.82321008 59.19257578 -75.41796875 47.765625 C-74.30550781 47.28996094 -73.19304687 46.81429687 -72.046875 46.32421875 C-61.30741149 41.71168275 -43.85399442 32.63767633 -38.41796875 21.765625 C-37.75796875 21.765625 -37.09796875 21.765625 -36.41796875 21.765625 C-36.16789062 21.21648437 -35.9178125 20.66734375 -35.66015625 20.1015625 C-34.18392897 17.32551246 -32.41687199 14.91509087 -30.54296875 12.390625 C-28.31443915 9.37223681 -26.11582108 6.37118996 -24.10546875 3.203125 C-18.87244203 -4.35569138 -7.91444545 -1.10470824 0 0 Z " fill="#EF5107" transform="translate(386.41796875,265.234375)"/>
<path d="M0 0 C3.87685679 2.08753827 6.48941618 3.77036532 8 8 C8.66 8 9.32 8 10 8 C10 8.66 10 9.32 10 10 C10.66 10 11.32 10 12 10 C12 10.66 12 11.32 12 12 C12.928125 12.37125 12.928125 12.37125 13.875 12.75 C16.46275992 14.27221172 17.05592658 15.16777975 18 18 C18.56183059 21.09006825 18.49219879 23.09794747 16.97265625 25.8828125 C6.75400415 40.3191354 -10.76735457 50.6435942 -27 57 C-27.928125 57.36480469 -28.85625 57.72960937 -29.8125 58.10546875 C-49.28442095 64.86367536 -70.23122225 65.63487907 -90.625 65.375 C-92.90917589 65.35922237 -95.19335576 65.34401072 -97.47753906 65.3293457 C-144.62487236 64.92470428 -144.62487236 64.92470428 -164 60 C-165.08023438 59.73574219 -166.16046875 59.47148437 -167.2734375 59.19921875 C-177.34893574 56.43028642 -187.29782283 51.80145145 -196 46 C-196 45.34 -196 44.68 -196 44 C-196.72960937 43.7421875 -197.45921875 43.484375 -198.2109375 43.21875 C-201.10562533 41.95384439 -203.17811214 40.48441765 -205.625 38.5 C-208.04787381 36.54847024 -210.40757162 34.72828558 -213 33 C-213 32.34 -213 31.68 -213 31 C-213.61875 30.7525 -214.2375 30.505 -214.875 30.25 C-217.51939985 28.69447068 -218.07669938 27.92378529 -219 25 C-219.42568872 19.63632209 -219.46490261 16.36321069 -216 12 C-212.78510651 9.85673767 -210.68464499 9.34938134 -206.84375 9.41796875 C-202.39998516 10.32747557 -198.71333677 12.57166986 -194.81176758 14.7890625 C-188.77586382 18.21351711 -182.55605093 20.72347088 -176 23 C-175.0615625 23.34160156 -174.123125 23.68320313 -173.15625 24.03515625 C-169.32539198 25.206223 -165.50847923 25.90309233 -161.5625 26.5625 C-160.83740234 26.68818359 -160.11230469 26.81386719 -159.36523438 26.94335938 C-157.2452487 27.30716644 -155.12302567 27.65445078 -153 28 C-151.94683594 28.18175781 -150.89367187 28.36351562 -149.80859375 28.55078125 C-119.90948903 32.07734232 -85.48231284 32.26199531 -56 26 C-54.8346875 25.76152344 -53.669375 25.52304688 -52.46875 25.27734375 C-42.63035115 23.04909252 -34.41121602 18.80306856 -25.78369141 13.72973633 C-23.20160633 12.21611271 -20.85023649 10.95007883 -18 10 C-18 9.34 -18 8.68 -18 8 C-15.8828125 6.30859375 -15.8828125 6.30859375 -13.125 4.4375 C-12.22007812 3.81746094 -11.31515625 3.19742188 -10.3828125 2.55859375 C-6.6252232 0.10076075 -4.53481658 -0.43604006 0 0 Z " fill="#EF5107" transform="translate(311,225)"/>
<path d="M0 0 C3.92545388 3.53290849 6.26962222 5.937583 6.8125 11.38671875 C6.98778883 21.17002633 6.98778883 21.17002633 4.5 25.25 C3.84 25.25 3.18 25.25 2.5 25.25 C2.5 25.91 2.5 26.57 2.5 27.25 C1.84 27.25 1.18 27.25 0.5 27.25 C0.5 27.91 0.5 28.57 0.5 29.25 C-4.05074762 31.93208314 -8.41345075 34.27343297 -13.4375 35.9375 C-20.7668079 38.74325068 -26.49575995 44.66254188 -30.28515625 51.4453125 C-31.63248799 54.04645797 -31.63248799 54.04645797 -31.5 56.25 C-30.84 56.25 -30.18 56.25 -29.5 56.25 C-25.69719712 63.41256075 -22.40430773 70.3450679 -20.5 78.25 C-20.31566406 78.97832031 -20.13132812 79.70664063 -19.94140625 80.45703125 C-19.30650336 84.47433712 -19.27542391 88.43852974 -19.25 92.5 C-19.229375 93.30824219 -19.20875 94.11648437 -19.1875 94.94921875 C-19.14645601 101.36234231 -19.8233136 108.05721643 -24.08276367 113.13793945 C-27.89457744 116.81869131 -32.14097509 119.11704709 -37.5 119.25 C-42.65221725 118.22909769 -46.67541107 115.84279566 -50.5 112.25 C-50.83 111.59 -51.16 110.93 -51.5 110.25 C-52.39460938 110.27320313 -53.28921875 110.29640625 -54.2109375 110.3203125 C-67.38366496 110.51692037 -77.77086508 108.2484617 -89.5 102.25 C-89.5 101.59 -89.5 100.93 -89.5 100.25 C-90.180625 100.085 -90.86125 99.92 -91.5625 99.75 C-98.32110476 96.29879757 -102.73171937 89.43827148 -105.61328125 82.57421875 C-107.91674124 73.93878063 -108.2119728 63.68270325 -104.3125 55.5 C-103.42106921 54.05390116 -102.48739534 52.63235348 -101.5 51.25 C-100.778125 50.1775 -100.05625 49.105 -99.3125 48 C-91.82565021 40.67952465 -83.13558996 36.99919025 -72.68164062 37.02539062 C-71.50891602 37.04375977 -71.50891602 37.04375977 -70.3125 37.0625 C-69.51908203 37.06314453 -68.72566406 37.06378906 -67.90820312 37.06445312 C-64.24862306 37.09210738 -61.04170606 37.25641939 -57.5 38.25 C-57.17322266 37.29480469 -57.17322266 37.29480469 -56.83984375 36.3203125 C-50.51808834 21.83372431 -39.38093284 4.88366886 -24.5 -1.75 C-16.3450476 -4.91966074 -7.75052236 -3.87526118 0 0 Z " fill="#EE5108" transform="translate(436.5,129.75)"/>
<path d="M0 0 C1.13452858 0.00135956 1.13452858 0.00135956 2.29197693 0.00274658 C3.48745903 -0.00732925 3.48745903 -0.00732925 4.70709229 -0.01760864 C7.35247473 -0.03666611 9.99760424 -0.04051754 12.64305115 -0.04266357 C14.48190923 -0.04908913 16.32076628 -0.0558173 18.15962219 -0.06283569 C22.02163561 -0.07482994 25.88355947 -0.07851462 29.74559021 -0.07733154 C34.68188005 -0.07712892 39.6175905 -0.10436288 44.55374336 -0.13887596 C48.35601914 -0.16118146 52.15815669 -0.16516787 55.96049118 -0.16411209 C57.77927002 -0.16646518 59.59805284 -0.1752722 61.41676712 -0.19077682 C63.97062598 -0.21049878 66.52325204 -0.20457369 69.07713318 -0.19256592 C69.82134018 -0.20380493 70.56554718 -0.21504395 71.33230591 -0.22662354 C76.80797496 -0.16160379 80.97603612 1.30039849 85.57273865 4.29327393 C89.5223912 8.34686471 91.36422578 12.04133498 91.88523865 17.66827393 C91.44429542 22.7832154 89.9278587 26.56432765 86.76023865 30.60577393 C81.22914013 34.87262135 75.25959416 34.52766943 68.61961365 34.34014893 C67.6542569 34.32068207 66.68890015 34.30121521 65.69429016 34.28115845 C62.57002289 34.21392916 59.44652607 34.12983174 56.32273865 34.04327393 C55.26383423 34.016828 54.20492981 33.99038208 53.11393738 33.96313477 C40.79892817 33.65480955 28.48704522 33.30060221 16.19773865 32.41827393 C14.72579041 32.31917725 14.72579041 32.31917725 13.22410583 32.21807861 C5.35041601 31.55795835 -2.72283871 30.1654737 -8.42726135 24.29327393 C-11.89016188 19.27803867 -12.32026343 14.2082124 -11.42726135 8.29327393 C-8.39343775 2.63013653 -6.51007043 0.08053029 0 0 Z " fill="#F05107" transform="translate(147.42726135253906,194.70672607421875)"/>
<path d="M0 0 C0 0.66 0 1.32 0 2 C-2.31 2.66 -4.62 3.32 -7 4 C-7 4.99 -7 5.98 -7 7 C-7.69867188 6.98839844 -8.39734375 6.97679687 -9.1171875 6.96484375 C-10.02726562 6.95582031 -10.93734375 6.94679688 -11.875 6.9375 C-12.77992188 6.92589844 -13.68484375 6.91429687 -14.6171875 6.90234375 C-17.0168585 6.83750743 -17.0168585 6.83750743 -19 8 C-21.14247238 8.20540348 -23.28938602 8.36589255 -25.4375 8.5 C-28.89448578 8.71630302 -31.71046711 8.90348904 -35 10 C-36.52481108 10.09658684 -38.05344844 10.13811982 -39.58129883 10.14526367 C-40.97600151 10.15483345 -40.97600151 10.15483345 -42.39888 10.16459656 C-43.40806992 10.16570938 -44.41725983 10.1668222 -45.45703125 10.16796875 C-46.51041183 10.17129715 -47.56379242 10.17462555 -48.64909363 10.17805481 C-50.89276697 10.18312746 -53.13644788 10.18546303 -55.38012695 10.18530273 C-58.73337278 10.18744935 -62.08626735 10.20548805 -65.43945312 10.22460938 C-93.58313599 10.29783032 -93.58313599 10.29783032 -107 8 C-107.33 7.67 -107.66 7.34 -108 7 C-110.50067818 6.64573726 -112.99055916 6.33876355 -115.5 6.0625 C-121.44265152 5.37060179 -127.18711504 4.45322124 -133 3 C-129.20184455 1.67085263 -126.02148984 2.23277079 -122.08203125 2.77734375 C-120.61351477 2.96600915 -119.14466109 3.15206251 -117.67553711 3.3359375 C-116.88742645 3.43487305 -116.0993158 3.53380859 -115.287323 3.63574219 C-97.01356516 5.86388101 -78.83649513 6.45206521 -60.4375 6.5 C-59.2368692 6.5098996 -58.0362384 6.51979919 -56.79922485 6.52999878 C-39.90725201 6.64561517 -23.41734888 5.76359001 -7.14233398 0.86914062 C-4 0 -4 0 0 0 Z " fill="#D1571E" transform="translate(300,319)"/>
<path d="M0 0 C0.33 0.66 0.66 1.32 1 2 C1.66 2.165 2.32 2.33 3 2.5 C3.66 2.665 4.32 2.83 5 3 C5.33 3.66 5.66 4.32 6 5 C12.46587544 7.41315709 19.15560596 8.43898409 26 9 C26 9.66 26 10.32 26 11 C27.85546875 10.90234375 29.7109375 10.8046875 31.56640625 10.70703125 C34 11 34 11 37.19140625 12.47265625 C41.51997755 14.44008292 45.67779854 14.51841844 50.375 14.625 C58.89329268 14.89329268 58.89329268 14.89329268 60 16 C87.58818351 19.54538747 116.6848901 19.28117519 144.296875 16.4375 C148.22613725 16.0348214 152.05212648 15.91370768 156 16 C156 16.33 156 16.66 156 17 C113.36255092 26.94873812 51.55623968 25.41832347 11.140625 8.8515625 C6.81737772 7.13173055 2.3763892 5.69573976 -2.0234375 4.18359375 C-5 3 -5 3 -7 1 C-4.50935112 0.31292445 -2.62113708 0 0 0 Z " fill="#AB461B" transform="translate(133,340)"/>
<path d="M0 0 C5.18159026 0.31971514 9.99091538 0.87231164 14.9375 2.5 C19.51232793 3.99116227 23.86081495 4.49950249 28.65234375 4.7890625 C31 5 31 5 34 6 C36.64587294 6.15501074 39.26975241 6.25797264 41.91796875 6.31640625 C43.11314117 6.34771385 43.11314117 6.34771385 44.3324585 6.37965393 C46.95070439 6.44612283 49.56904429 6.50492546 52.1875 6.5625 C53.08381134 6.58334656 53.98012268 6.60419312 54.90359497 6.62567139 C80.29506007 7.21195662 105.62500338 7.30341513 131 6 C119.04158397 12.89852935 100.22575707 10.31185455 87 10.25 C85.27638245 10.24584579 85.27638245 10.24584579 83.51794434 10.24160767 C26.92197538 10.08155676 26.92197538 10.08155676 0 1 C0 0.67 0 0.34 0 0 Z " fill="#B84A19" transform="translate(134,280)"/>
<path d="M0 0 C0.95310059 0.01047363 1.90620117 0.02094727 2.88818359 0.03173828 C4.43505859 0.04140625 4.43505859 0.04140625 6.01318359 0.05126953 C7.63353516 0.07640625 7.63353516 0.07640625 9.28662109 0.10205078 C10.37458984 0.11107422 11.46255859 0.12009766 12.58349609 0.12939453 C15.27642261 0.15301669 17.96891365 0.18595522 20.66162109 0.22705078 C20.66162109 0.55705078 20.66162109 0.88705078 20.66162109 1.22705078 C19.34806641 1.26443359 18.03451172 1.30181641 16.68115234 1.34033203 C14.94544745 1.40600735 13.20977163 1.47245415 11.47412109 1.53955078 C10.60980469 1.56210938 9.74548828 1.58466797 8.85498047 1.60791016 C2.23542574 1.86517664 2.23542574 1.86517664 -3.33837891 5.22705078 C-4.36404887 7.52438635 -4.36404887 7.52438635 -4.65087891 10.10205078 C-4.79138672 10.94509766 -4.93189453 11.78814453 -5.07666016 12.65673828 C-5.33569072 15.20065038 -5.38874815 17.67195627 -5.33837891 20.22705078 C-4.67837891 20.22705078 -4.01837891 20.22705078 -3.33837891 20.22705078 C-3.00837891 21.87705078 -2.67837891 23.52705078 -2.33837891 25.22705078 C-0.35837891 25.55705078 1.62162109 25.88705078 3.66162109 26.22705078 C3.66162109 26.88705078 3.66162109 27.54705078 3.66162109 28.22705078 C4.96099609 28.20642578 6.26037109 28.18580078 7.59912109 28.16455078 C8.95327743 28.14305624 10.30918192 28.1555688 11.66162109 28.22705078 C11.99162109 28.55705078 12.32162109 28.88705078 12.66162109 29.22705078 C14.92946035 29.41068706 17.20282489 29.52627494 19.47631836 29.6159668 C20.18847504 29.64537354 20.90063171 29.67478027 21.6343689 29.70507812 C23.99876328 29.80157461 26.36336536 29.89127788 28.72802734 29.98095703 C30.36329287 30.04637216 31.99854159 30.11220877 33.6337738 30.17845154 C37.94579418 30.35198986 42.25802011 30.51977831 46.5703125 30.68640137 C50.96742264 30.8573102 55.36431604 31.0336131 59.76123047 31.20947266 C68.39449022 31.55396805 77.02797439 31.8923941 85.66162109 32.22705078 C82.72391987 33.90960664 80.68093872 34.46705973 77.30566406 34.39404297 C76.44805481 34.3802359 75.59044556 34.36642883 74.70684814 34.35220337 C73.78184509 34.32637177 72.85684204 34.30054016 71.90380859 34.27392578 C70.93562195 34.25445892 69.9674353 34.23499207 68.96990967 34.2149353 C65.82507586 34.14750608 62.68098631 34.06347803 59.53662109 33.97705078 C58.47272156 33.95060486 57.40882202 33.92415894 56.31268311 33.89691162 C43.96106122 33.58883929 31.61239127 33.23820505 19.28662109 32.35205078 C18.3054834 32.28598633 17.3243457 32.21992188 16.31347656 32.15185547 C8.43963802 31.49184047 0.36614857 30.09935847 -5.33837891 24.22705078 C-8.80127944 19.21181553 -9.23138098 14.14198926 -8.33837891 8.22705078 C-4.14672869 0.40263705 -4.14672869 0.40263705 0 0 Z " fill="#B2491A" transform="translate(144.33837890625,194.77294921875)"/>
<path d="M0 0 C3.75056301 -0.06579935 7.22218003 -0.12324977 10.93359375 0.46484375 C16.74956789 1.33503539 22.6306268 1.42583591 28.5 1.625 C29.15896271 1.64745789 29.81792542 1.66991577 30.49685669 1.6930542 C42.48721543 2.08034084 54.44694758 1.94718686 66.4375 1.625 C67.65276367 1.59300507 67.65276367 1.59300507 68.89257812 1.56036377 C79.61215659 1.26728431 90.3021225 0.73930286 101 0 C91.70341828 6.19772115 75.87121357 4.42285962 65.06640625 4.77734375 C58.86045339 4.98533749 52.68739219 5.4030502 46.5 5.9140625 C45.675 5.94242187 44.85 5.97078125 44 6 C43.505 5.505 43.505 5.505 43 5 C40.55391002 4.84019563 38.13268942 4.74070553 35.68359375 4.68359375 C34.95253922 4.66281265 34.22148468 4.64203156 33.46827698 4.62062073 C31.12478344 4.55504976 28.78117461 4.49620568 26.4375 4.4375 C24.85220145 4.39432192 23.26691471 4.35070787 21.68164062 4.30664062 C17.78787963 4.1993608 13.89400228 4.0981151 10 4 C10 3.34 10 2.68 10 2 C6.7 2 3.4 2 0 2 C0 1.34 0 0.68 0 0 Z " fill="#A44317" transform="translate(150,253)"/>
<path d="M0 0 C1.24040039 0.01353516 1.24040039 0.01353516 2.50585938 0.02734375 C4.52486708 0.05068488 6.54372356 0.08654712 8.5625 0.125 C8.5625 0.455 8.5625 0.785 8.5625 1.125 C6.04230028 1.46385038 3.52151484 1.79620335 1 2.125 C0.29552734 2.22039062 -0.40894531 2.31578125 -1.13476562 2.4140625 C-5.61117855 2.99166417 -9.92411238 3.21989383 -14.4375 3.125 C-14.4375 4.115 -14.4375 5.105 -14.4375 6.125 C-15.51 6.7025 -16.5825 7.28 -17.6875 7.875 C-20.75852381 9.61483406 -22.98062335 11.58037776 -25.4375 14.125 C-26.4275 14.455 -27.4175 14.785 -28.4375 15.125 C-30.45253575 18.14755362 -31.33708143 20.68619198 -32.4375 24.125 C-32.80617188 24.80175781 -33.17484375 25.47851562 -33.5546875 26.17578125 C-34.90151897 30.67515188 -34.12942543 34.82715816 -33.5625 39.4375 C-33.45808594 40.36884766 -33.35367187 41.30019531 -33.24609375 42.25976562 C-32.98774158 44.5497053 -32.71789237 46.83767224 -32.4375 49.125 C-37.45909937 44.10340063 -36.87373174 37.64306175 -36.87573242 31.00878906 C-36.72363805 24.39167882 -35.32405017 19.56617024 -31.4375 14.125 C-30.715625 13.0525 -29.99375 11.98 -29.25 10.875 C-20.8383187 2.65024495 -11.53833688 -0.24173792 0 0 Z " fill="#BE4C18" transform="translate(366.4375,166.875)"/>
<path d="M0 0 C2.87599279 -0.08646602 5.75114705 -0.14862985 8.62792969 -0.20068359 C9.81261841 -0.24515625 9.81261841 -0.24515625 11.02124023 -0.29052734 C16.55067797 -0.34890478 20.68503099 1.06803896 25.31542969 4.11181641 C29.26508224 8.16540719 31.10691682 11.85987746 31.62792969 17.48681641 C31.17661456 22.72207189 29.65106856 26.5333341 26.25292969 30.54931641 C24.31542969 32.11181641 24.31542969 32.11181641 22.31542969 32.11181641 C22.31542969 31.45181641 22.31542969 30.79181641 22.31542969 30.11181641 C23.30542969 30.11181641 24.29542969 30.11181641 25.31542969 30.11181641 C25.25355469 29.32806641 25.19167969 28.54431641 25.12792969 27.73681641 C25.22074219 26.43744141 25.22074219 26.43744141 25.31542969 25.11181641 C26.30542969 24.45181641 27.29542969 23.79181641 28.31542969 23.11181641 C29.02137668 19.73503664 28.92757205 16.50046165 28.31542969 13.11181641 C26.01685863 10.43362658 26.01685863 10.43362658 23.31542969 9.11181641 C23.64542969 7.79181641 23.97542969 6.47181641 24.31542969 5.11181641 C22.33542969 4.78181641 20.35542969 4.45181641 18.31542969 4.11181641 C18.31542969 3.45181641 18.31542969 2.79181641 18.31542969 2.11181641 C-1.15457031 2.11181641 -20.62457031 2.11181641 -40.68457031 2.11181641 C-40.68457031 1.78181641 -40.68457031 1.45181641 -40.68457031 1.11181641 C-29.88217211 0.78809745 -19.07941375 0.49173765 -8.27539062 0.22753906 C-5.51653244 0.15964025 -2.75846324 0.08371165 0 0 Z " fill="#8F3A14" transform="translate(207.6845703125,194.88818359375)"/>
<path d="M0 0 C1.26070312 0.12117188 2.52140625 0.24234375 3.8203125 0.3671875 C5.58853904 0.53648579 7.35676836 0.70575497 9.125 0.875 C9.94226563 0.95363281 10.75953125 1.03226562 11.6015625 1.11328125 C13.50701493 1.29542009 15.41282201 1.47386329 17.31884766 1.64990234 C20.12280335 1.91657382 22.92302335 2.20065533 25.72412109 2.49462891 C40.27592998 3.97520367 54.75557129 4.42062179 69.375 4.625 C71.6836062 4.66331981 73.99220025 4.70237875 76.30078125 4.7421875 C81.86707704 4.83660412 87.43345036 4.92205724 93 5 C93 5.33 93 5.66 93 6 C84.28155997 6.02312611 75.56313044 6.04091646 66.84466648 6.05181217 C62.79674258 6.05704041 58.74883959 6.06413699 54.70092773 6.07543945 C50.79764029 6.08627043 46.89437301 6.09227728 42.9910717 6.09487724 C41.49866353 6.09673111 40.00625652 6.100351 38.51385689 6.10573006 C36.43051861 6.11294331 34.34726469 6.11399083 32.26391602 6.11352539 C31.07588882 6.115746 29.88786163 6.11796661 28.66383362 6.12025452 C26 6 26 6 25 5 C22.49932182 4.64573726 20.00944084 4.33876355 17.5 4.0625 C11.55734848 3.37060179 5.81288496 2.45322124 0 1 C0 0.67 0 0.34 0 0 Z " fill="#8F3A12" transform="translate(167,321)"/>
<path d="M0 0 C2.3431213 0.25561323 4.67843403 0.59270772 7 1 C7.33 1.66 7.66 2.32 8 3 C10.97 3 13.94 3 17 3 C16.67 3.66 16.34 4.32 16 5 C15.34 5 14.68 5 14 5 C14 5.66 14 6.32 14 7 C17.63 7 21.26 7 25 7 C25.33 6.34 25.66 5.68 26 5 C26 6.32 26 7.64 26 9 C31.28 8.34 36.56 7.68 42 7 C42.495 10.465 42.495 10.465 43 14 C42.46052734 13.25943359 42.46052734 13.25943359 41.91015625 12.50390625 C39.10028013 10.29163159 36.96028278 10.77895544 33.4375 10.9375 C21.80061545 11.16473618 12.31614851 8.27583851 2 3 C2 2.34 2 1.68 2 1 C1.34 0.67 0.68 0.34 0 0 Z " fill="#C54A12" transform="translate(345,229)"/>
<path d="M0 0 C0.66 0 1.32 0 2 0 C2 0.66 2 1.32 2 2 C2.7734375 2.14501953 2.7734375 2.14501953 3.5625 2.29296875 C6.88862036 3.25775687 9.89745092 4.80036628 13 6.3125 C26.35340764 12.65387379 40.26163485 16.52616348 55 18 C55 18.33 55 18.66 55 19 C50.05 19 45.1 19 40 19 C40 18.34 40 17.68 40 17 C39.14728516 17.05220703 39.14728516 17.05220703 38.27734375 17.10546875 C33.70086283 17.26591299 30.27547409 17.05453644 26.08203125 14.9921875 C23.25846413 13.64662268 20.35821216 12.5555076 17.4375 11.4375 C16.36371094 11.02371094 15.28992188 10.60992187 14.18359375 10.18359375 C12.04222692 9.38747823 9.88197858 8.64058861 7.70703125 7.94140625 C4.95179831 6.98323722 3.83371386 6.20045664 2 4 C1.34 3.34 0.68 2.68 0 2 C0 1.34 0 0.68 0 0 Z " fill="#9F4218" transform="translate(112,302)"/>
<path d="M0 0 C14.44668107 -0.06666417 28.87100091 0.12259346 43.3125 0.5 C45.24022837 0.54841661 47.16796276 0.59659454 49.09570312 0.64453125 C53.73054218 0.76028843 58.36528951 0.87920904 63 1 C63 1.33 63 1.66 63 2 C58.02381524 2.80951322 53.18969761 3.15921703 48.14453125 3.16796875 C47.40843124 3.17202225 46.67233124 3.17607574 45.91392517 3.18025208 C43.54673844 3.18964351 41.17970272 3.18965712 38.8125 3.1875 C38.00985718 3.1882251 37.20721436 3.1889502 36.38024902 3.18969727 C24.15251921 3.1884737 12.12430867 2.70593288 0 1 C0 0.67 0 0.34 0 0 Z " fill="#DB5A1B" transform="translate(146,196)"/>
<path d="M0 0 C3.5071102 0.04496295 5.0142738 0.17926345 8.125 1.9375 C10.48250624 4.57235992 12.40195682 7.30087408 14.25 10.3125 C13.92 10.9725 13.59 11.6325 13.25 12.3125 C10.375 11.1875 10.375 11.1875 7.25 9.3125 C5.875 6.125 5.875 6.125 5.25 3.3125 C1.62 3.3125 -2.01 3.3125 -5.75 3.3125 C-6.08 4.3025 -6.41 5.2925 -6.75 6.3125 C-7.41 6.3125 -8.07 6.3125 -8.75 6.3125 C-8.42 11.5925 -8.09 16.8725 -7.75 22.3125 C-11.26274325 17.04338513 -11.5928831 12.59333861 -10.75 6.3125 C-8.3125 3.1875 -8.3125 3.1875 -5.75 1.3125 C-4.10962605 -0.32787395 -2.25523159 0.06338669 0 0 Z " fill="#AA4718" transform="translate(73.75,265.6875)"/>
<path d="M0 0 C1.32 0.66 2.64 1.32 4 2 C-26.37950958 21.63042338 -26.37950958 21.63042338 -42 21 C-39.46276559 18.46276559 -37.37531783 18.06368905 -33.9375 17.0625 C-32.77605469 16.71574219 -31.61460937 16.36898438 -30.41796875 16.01171875 C-29.29003906 15.67785156 -28.16210938 15.34398437 -27 15 C-23.95348056 14.07719536 -20.99149979 13.09688325 -18 12 C-17.67 11.34 -17.34 10.68 -17 10 C-14.35139573 9.40644386 -11.70802678 9.25790731 -9 9 C-8.67 8.01 -8.34 7.02 -8 6 C-7.34 6 -6.68 6 -6 6 C-5.67 4.68 -5.34 3.36 -5 2 C-3.35 2 -1.7 2 0 2 C0 1.34 0 0.68 0 0 Z " fill="#AD4419" transform="translate(307,265)"/>
<path d="M0 0 C0.33 0 0.66 0 1 0 C2.19531779 4.74271253 2.21958051 9.39048662 2.25 14.25 C2.270625 15.05824219 2.29125 15.86648437 2.3125 16.69921875 C2.35354201 23.11203272 1.67704867 29.80768965 -2.58300781 34.88769531 C-6.41813462 38.59210568 -10.63853431 40.72773807 -16 41 C-18.52508895 40.58871657 -20.58536561 39.90548789 -23 39 C-20.16333481 38.20419348 -17.56075684 37.89421262 -14.625 37.75 C-9.64494068 37.26594152 -7.56449624 35.39061837 -4 32 C-3.34 32 -2.68 32 -2 32 C-0.85680792 25.38101391 -0.6699976 18.76681596 -0.4375 12.0625 C-0.39431641 10.90169922 -0.35113281 9.74089844 -0.30664062 8.54492188 C-0.20115158 5.69671768 -0.09903445 2.84843471 0 0 Z " fill="#A4441B" transform="translate(415,208)"/>
<path d="M0 0 C2 3 2 3 2 7 C4.65228812 8.07525194 7.28368454 9.09456151 10 10 C10.268125 10.639375 10.53625 11.27875 10.8125 11.9375 C11.91161165 14.338822 11.91161165 14.338822 15.125 15.25 C16.07375 15.4975 17.0225 15.745 18 16 C17.67 17.32 17.34 18.64 17 20 C18.32 20.33 19.64 20.66 21 21 C21 21.66 21 22.32 21 23 C18.0280615 21.87548273 15.66559313 20.77706209 13 19 C13 18.34 13 17.68 13 17 C12.34 16.814375 11.68 16.62875 11 16.4375 C6.73094732 14.39191226 3.25836294 11.42815357 0 8 C0 7.34 0 6.68 0 6 C-0.66 6 -1.32 6 -2 6 C-2 5.34 -2 4.68 -2 4 C-2.66 4 -3.32 4 -4 4 C-4.33 3.01 -4.66 2.02 -5 1 C-2 0 -2 0 0 0 Z " fill="#C04B16" transform="translate(84,306)"/>
<path d="M0 0 C5.18159026 0.31971514 9.99091538 0.87231164 14.9375 2.5 C19.39279492 3.94100945 23.56488802 4.43380717 28.22265625 4.75390625 C30.9975823 4.99978577 33.64389761 5.45695061 36.375 6 C42.54565405 7.19662466 48.73311073 7.6213962 55 8 C55 8.33 55 8.66 55 9 C37.1491343 9.50921645 16.5443496 8.23815295 0 1 C0 0.67 0 0.34 0 0 Z " fill="#9F4317" transform="translate(134,280)"/>
<path d="M0 0 C2.875 1.5 2.875 1.5 5 3 C3.5 5 3.5 5 1 7 C-1.75871627 7.35800135 -4.20097524 7.18660165 -7 7 C-7 6.34 -7 5.68 -7 5 C-11.455 6.485 -11.455 6.485 -16 8 C-11.12573763 2.84720835 -7.43106901 -0.92888363 0 0 Z " fill="#CC4A0D" transform="translate(311,225)"/>
<path d="M0 0 C0.95310059 0.01047363 1.90620117 0.02094727 2.88818359 0.03173828 C4.43505859 0.04140625 4.43505859 0.04140625 6.01318359 0.05126953 C7.63353516 0.07640625 7.63353516 0.07640625 9.28662109 0.10205078 C10.37458984 0.11107422 11.46255859 0.12009766 12.58349609 0.12939453 C15.27642261 0.15301669 17.96891365 0.18595522 20.66162109 0.22705078 C20.66162109 0.55705078 20.66162109 0.88705078 20.66162109 1.22705078 C19.34806641 1.26443359 18.03451172 1.30181641 16.68115234 1.34033203 C14.94544745 1.40600735 13.20977163 1.47245415 11.47412109 1.53955078 C10.60980469 1.56210938 9.74548828 1.58466797 8.85498047 1.60791016 C2.23686301 1.86685053 2.23686301 1.86685053 -3.33837891 5.22705078 C-4.36466301 7.48965625 -4.36466301 7.48965625 -4.65087891 10.03955078 C-4.78880859 10.91998047 -4.92673828 11.80041016 -5.06884766 12.70751953 C-5.37479984 15.56750734 -5.48960954 18.35366876 -5.33837891 21.22705078 C-7.41614645 19.53507562 -8.26139452 18.63000507 -8.77197266 15.95751953 C-8.78085613 10.17437943 -8.22920527 6.80449357 -4.33837891 2.22705078 C-2.33837891 0.22705078 -2.33837891 0.22705078 0 0 Z " fill="#BE4B1A" transform="translate(144.33837890625,194.77294921875)"/>
<path d="M0 0 C1.15957207 3.47871621 0.77456651 4.34219645 -0.4375 7.6875 C-0.72496094 8.49574219 -1.01242187 9.30398437 -1.30859375 10.13671875 C-1.53675781 10.75160156 -1.76492188 11.36648437 -2 12 C-3.65 11.67 -5.3 11.34 -7 11 C-7.0825 12.27875 -7.165 13.5575 -7.25 14.875 C-7.515625 17.09765625 -7.515625 17.09765625 -8 19 C-10 20.3125 -10 20.3125 -12 21 C-12.33 21.99 -12.66 22.98 -13 24 C-13.66 23.67 -14.32 23.34 -15 23 C-13.44847598 18.60401528 -11.1490532 14.82668655 -8.625 10.9375 C-8.23828125 10.32583984 -7.8515625 9.71417969 -7.453125 9.08398438 C-5.25657201 5.67490465 -2.99294289 2.74011438 0 0 Z " fill="#AF4713" transform="translate(397,140)"/>
<path d="M0 0 C0 0.66 0 1.32 0 2 C-1.7578125 2.94401042 -3.515625 3.88802083 -5.2734375 4.83203125 C-7.30502365 6.04763493 -7.30502365 6.04763493 -9 9 C-9.99 9.33 -10.98 9.66 -12 10 C-12 10.66 -12 11.32 -12 12 C-12.99 12.33 -13.98 12.66 -15 13 C-15 12.34 -15 11.68 -15 11 C-16.32 11 -17.64 11 -19 11 C-19 11.66 -19 12.32 -19 13 C-21.64 13 -24.28 13 -27 13 C-24.64393667 10.64393667 -22.30388628 9.95926468 -19.21484375 8.84765625 C-14.27813091 6.95829702 -9.67787148 4.41762449 -5.125 1.75 C-2 0 -2 0 0 0 Z " fill="#B6440F" transform="translate(327,306)"/>
<path d="M0 0 C3.55839258 0.88959814 5.68878692 1.70516655 8.375 4.25 C10.43354494 7.73369143 10.75492065 8.99892057 10 13 C8.26934716 16.51934587 6.38123425 19.87848568 4 23 C3.34 23 2.68 23 2 23 C1.71125 23.804375 1.4225 24.60875 1.125 25.4375 C0 28 0 28 -2 29 C-1.37240135 26.07120629 -0.41377341 23.63904371 1 21 C1.66 21 2.32 21 3 21 C3.1546875 20.1646875 3.1546875 20.1646875 3.3125 19.3125 C4 17 4 17 5.625 14.5625 C7.25374611 12.09524765 7.25374611 12.09524765 6.75 9.375 C6.18259728 7.57822473 5.5958479 5.78754371 5 4 C4.34 4 3.68 4 3 4 C3 3.34 3 2.68 3 2 C2.01 1.67 1.02 1.34 0 1 C0 0.67 0 0.34 0 0 Z " fill="#A14419" transform="translate(390,267)"/>
<path d="M0 0 C1.32 0 2.64 0 4 0 C4 0.66 4 1.32 4 2 C5.32 1.67 6.64 1.34 8 1 C8.33 2.65 8.66 4.3 9 6 C9.66 6 10.32 6 11 6 C11 6.66 11 7.32 11 8 C12.093125 8.12375 13.18625 8.2475 14.3125 8.375 C18 9 18 9 21 11 C21.6875 13.625 21.6875 13.625 22 16 C17.25 14.125 17.25 14.125 15 13 C15 12.34 15 11.68 15 11 C14.27296875 10.7421875 13.5459375 10.484375 12.796875 10.21875 C9.8848975 8.9498436 7.73467284 7.46772748 5.25 5.5 C4.47140625 4.8915625 3.6928125 4.283125 2.890625 3.65625 C1 2 1 2 0 0 Z " fill="#AA4415" transform="translate(100,258)"/>
<path d="M0 0 C4.86365546 0.41688475 6.82938132 2.41219465 10 6 C10.53753906 6.58136719 11.07507813 7.16273438 11.62890625 7.76171875 C13.47869034 10.78145175 13.36493375 12.98290547 13.3125 16.5 C13.30863281 17.6240625 13.30476563 18.748125 13.30078125 19.90625 C13.01644131 22.83088934 12.52133407 24.52707449 11 27 C10.34 27 9.68 27 9 27 C9 27.66 9 28.32 9 29 C8.34 29 7.68 29 7 29 C7.33 28.01 7.66 27.02 8 26 C8.66 26 9.32 26 10 26 C10 20.06 10 14.12 10 8 C8.35 7.67 6.7 7.34 5 7 C4.67 7.66 4.34 8.32 4 9 C4 7.35 4 5.7 4 4 C3.34 3.67 2.68 3.34 2 3 C2 2.34 2 1.68 2 1 C1.34 0.67 0.68 0.34 0 0 Z " fill="#A14517" transform="translate(430,128)"/>
<path d="M0 0 C0.33 0 0.66 0 1 0 C1 1.98 1 3.96 1 6 C0.01 6 -0.98 6 -2 6 C-1.896875 7.0725 -1.79375 8.145 -1.6875 9.25 C-2 13 -2 13 -4.1875 15.375 C-6.90582971 16.9455905 -8.90329842 17.64609125 -12 18 C-12 18.66 -12 19.32 -12 20 C-12.66 19.67 -13.32 19.34 -14 19 C-13.67 18.34 -13.34 17.68 -13 17 C-12.34 17 -11.68 17 -11 17 C-10.75378906 16.45601563 -10.50757813 15.91203125 -10.25390625 15.3515625 C-8.724054 12.4824938 -6.87557185 9.98488986 -4.9375 7.375 C-2.24523621 3.82484836 -2.24523621 3.82484836 0 0 Z " fill="#C44B11" transform="translate(361,270)"/>
<path d="M0 0 C0 0.66 0 1.32 0 2 C-2.31 2.66 -4.62 3.32 -7 4 C-7 4.99 -7 5.98 -7 7 C-13.93 6.67 -20.86 6.34 -28 6 C-28 5.67 -28 5.34 -28 5 C-26.85402344 4.80664062 -25.70804687 4.61328125 -24.52734375 4.4140625 C-22.99736117 4.15124341 -21.46741518 3.88821121 -19.9375 3.625 C-19.18533203 3.49867188 -18.43316406 3.37234375 -17.65820312 3.2421875 C-14.08265484 2.62304494 -10.6854148 1.90901228 -7.19140625 0.8984375 C-4 0 -4 0 0 0 Z " fill="#AB4113" transform="translate(300,319)"/>
<path d="M0 0 C2.97464805 0.65953735 5.59019048 1.64892345 8.375 2.875 C14.71439811 5.47529204 21.2899526 6.72373738 28 8 C28 8.33 28 8.66 28 9 C23.71 9 19.42 9 15 9 C15 8.34 15 7.68 15 7 C14.319375 7.061875 13.63875 7.12375 12.9375 7.1875 C9.17338073 6.94723707 6.42899813 5.53080274 3 4 C0.22111387 3.30859478 0.22111387 3.30859478 -2 3 C-1.34 2.67 -0.68 2.34 0 2 C0 1.34 0 0.68 0 0 Z " fill="#AA4516" transform="translate(122,244)"/>
<path d="M0 0 C0.99 0 1.98 0 3 0 C1.63088196 3.1489715 0.1247864 5.0478487 -2.5 7.25 C-3.1084375 7.77078125 -3.716875 8.2915625 -4.34375 8.828125 C-6 10 -6 10 -8 10 C-8 10.66 -8 11.32 -8 12 C-9.98 12.99 -11.96 13.98 -14 15 C-14.33 14.01 -14.66 13.02 -15 12 C-13.68 11.67 -12.36 11.34 -11 11 C-10.979375 10.236875 -10.95875 9.47375 -10.9375 8.6875 C-10 6 -10 6 -6.625 4.1875 C-3 3 -3 3 0 3 C0 2.01 0 1.02 0 0 Z " fill="#D34E10" transform="translate(368,313)"/>
<path d="M0 0 C2.125 0.375 2.125 0.375 4 1 C4 1.66 4 2.32 4 3 C3.34 3 2.68 3 2 3 C1.75507813 3.57234375 1.51015625 4.1446875 1.2578125 4.734375 C-0.21110099 7.38024402 -1.95348244 9.14853139 -4.125 11.25 C-4.84945313 11.95640625 -5.57390625 12.6628125 -6.3203125 13.390625 C-6.87460937 13.92171875 -7.42890625 14.4528125 -8 15 C-8.99 13.68 -9.98 12.36 -11 11 C-10.01 10.67 -9.02 10.34 -8 10 C-7.67 9.34 -7.34 8.68 -7 8 C-4.4375 7.375 -4.4375 7.375 -2 7 C-2.04125 6.21625 -2.0825 5.4325 -2.125 4.625 C-2 2 -2 2 0 0 Z " fill="#B84716" transform="translate(381,298)"/>
<path d="M0 0 C0.66 0.33 1.32 0.66 2 1 C2 2.32 2 3.64 2 5 C3.32 5.66 4.64 6.32 6 7 C6 8.32 6 9.64 6 11 C6.66 11 7.32 11 8 11 C8 11.66 8 12.32 8 13 C8.99 13 9.98 13 11 13 C11.33 15.31 11.66 17.62 12 20 C6.70347515 15.18497741 -0.01913079 8.34017124 -1 1 C-0.67 0.67 -0.34 0.34 0 0 Z " fill="#B04615" transform="translate(67,287)"/>
<path d="M0 0 C0 0.33 0 0.66 0 1 C-10.04665154 3.201713 -19.71550759 4.19693709 -30 4 C-30.33 3.34 -30.66 2.68 -31 2 C-27.14624423 1.66180134 -23.29193872 1.33031669 -19.4375 1 C-18.35146484 0.90460938 -17.26542969 0.80921875 -16.14648438 0.7109375 C-10.7437499 0.25113031 -5.42245588 -0.12447531 0 0 Z " fill="#AA4619" transform="translate(289,356)"/>
<path d="M0 0 C0 0.33 0 0.66 0 1 C-0.62044189 0.98428955 -1.24088379 0.9685791 -1.88012695 0.95239258 C-4.69082528 0.89003786 -7.50137812 0.85100852 -10.3125 0.8125 C-11.28896484 0.78736328 -12.26542969 0.76222656 -13.27148438 0.73632812 C-14.20927734 0.72666016 -15.14707031 0.71699219 -16.11328125 0.70703125 C-16.97735596 0.6913208 -17.84143066 0.67561035 -18.73168945 0.65942383 C-21.5052481 1.07586063 -22.09391781 2.04495305 -24 4 C-25.32 4 -26.64 4 -28 4 C-23.47952235 -6.4318715 -9.1035086 -1.327595 0 0 Z " fill="#8B3718" transform="translate(390,266)"/>
<path d="M0 0 C0.33 2.31 0.66 4.62 1 7 C0.46826172 6.25943359 0.46826172 6.25943359 -0.07421875 5.50390625 C-2.94305693 3.26353567 -5.23398828 3.78124975 -8.8125 3.9375 C-13.74784183 4.14380046 -17.38562724 3.81607014 -22 2 C-22 1.67 -22 1.34 -22 1 C-21.03578125 1.01160156 -20.0715625 1.02320313 -19.078125 1.03515625 C-17.18320312 1.04869141 -17.18320312 1.04869141 -15.25 1.0625 C-13.37054688 1.07990234 -13.37054688 1.07990234 -11.453125 1.09765625 C-7.47378005 0.98511821 -3.99109931 0 0 0 Z " fill="#B74E1F" transform="translate(387,236)"/>
<path d="M0 0 C-4.18461538 4.92307692 -4.18461538 4.92307692 -8.3125 5.3125 C-9.199375 5.209375 -10.08625 5.10625 -11 5 C-11.33 5.99 -11.66 6.98 -12 8 C-13.65 8.33 -15.3 8.66 -17 9 C-8.1603514 -2.08753175 -8.1603514 -2.08753175 0 0 Z " fill="#D14C0F" transform="translate(415,131)"/>
<path d="M0 0 C2.64 0 5.28 0 8 0 C8 0.66 8 1.32 8 2 C9.670625 1.87625 9.670625 1.87625 11.375 1.75 C16.75507006 1.71143319 21.18220303 3.78855221 26 6 C17.65334035 8.63678566 7.83359701 3.77271647 0 1 C0 0.67 0 0.34 0 0 Z " fill="#C34D18" transform="translate(151,349)"/>
<path d="M0 0 C3.50112467 1.39558719 6.74857789 3.09937747 10 5 C10 5.33 10 5.66 10 6 C8.35 6 6.7 6 5 6 C5 5.34 5 4.68 5 4 C-2.23248827 2.24666951 -7.42206651 2.77815503 -14 6 C-11.16415067 -0.54426769 -6.49541074 -1.0198587 0 0 Z " fill="#9C451A" transform="translate(107,235)"/>
<path d="M0 0 C-15 7 -15 7 -21 5 C-20.34 4.34 -19.68 3.68 -19 3 C-17.68 3 -16.36 3 -15 3 C-15 2.34 -15 1.68 -15 1 C-13.25215171 0.63536268 -11.50159498 0.2836922 -9.75 -0.0625 C-8.28820312 -0.35833984 -8.28820312 -0.35833984 -6.796875 -0.66015625 C-4.131881 -0.98397535 -2.51128277 -0.85503199 0 0 Z " fill="#A0451B" transform="translate(319,348)"/>
<path d="M0 0 C-2.39164168 1.32066755 -4.78780216 2.63161792 -7.1875 3.9375 C-7.86103516 4.31068359 -8.53457031 4.68386719 -9.22851562 5.06835938 C-12.80620758 7.00554868 -15.8986345 8.49827956 -20 9 C-20 8.34 -20 7.68 -20 7 C-18.02 6.67 -16.04 6.34 -14 6 C-14 5.34 -14 4.68 -14 4 C-12.68 4 -11.36 4 -10 4 C-10 3.34 -10 2.68 -10 2 C-3.375 -1.125 -3.375 -1.125 0 0 Z " fill="#8E3A17" transform="translate(340,338)"/>
<path d="M0 0 C0.33 0.99 0.66 1.98 1 3 C-0.25 4.875 -0.25 4.875 -2 7 C-2.7425 8.36125 -2.7425 8.36125 -3.5 9.75 C-4.2425 10.86375 -4.2425 10.86375 -5 12 C-5.99 12 -6.98 12 -8 12 C-7.01 10.68 -6.02 9.36 -5 8 C-6.65 8.66 -8.3 9.32 -10 10 C-6.92118304 6.12948725 -3.99926986 2.97088618 0 0 Z " fill="#B6450F" transform="translate(346,290)"/>
<path d="M0 0 C0.33 0 0.66 0 1 0 C1.0825 1.093125 1.165 2.18625 1.25 3.3125 C1.64754553 7.00403714 1.64754553 7.00403714 3.9375 8.9375 C5.90964337 10.1526522 5.90964337 10.1526522 8 10 C8 11.98 8 13.96 8 16 C7.34 16 6.68 16 6 16 C6 15.34 6 14.68 6 14 C5.38125 13.7525 4.7625 13.505 4.125 13.25 C1.48060015 11.69447068 0.92330062 10.92378529 0 8 C-0.15467124 5.3087205 -0.09002071 2.70062117 0 0 Z " fill="#AE4618" transform="translate(92,242)"/>
<path d="M0 0 C1.53720703 0.01933594 1.53720703 0.01933594 3.10546875 0.0390625 C4.70068359 0.08933594 4.70068359 0.08933594 6.328125 0.140625 C7.94654297 0.16769531 7.94654297 0.16769531 9.59765625 0.1953125 C12.25871288 0.24241085 14.91796754 0.308169 17.578125 0.390625 C17.578125 0.720625 17.578125 1.050625 17.578125 1.390625 C16.26457031 1.42800781 14.95101562 1.46539062 13.59765625 1.50390625 C11.86195136 1.56958157 10.12627553 1.63602837 8.390625 1.703125 C7.52630859 1.72568359 6.66199219 1.74824219 5.77148438 1.77148438 C0.77157971 1.98220833 -2.18329456 2.54095792 -6.421875 5.390625 C-7.411875 5.060625 -8.401875 4.730625 -9.421875 4.390625 C-6.3849168 0.77876936 -4.70660596 -0.10459124 0 0 Z " fill="#803114" transform="translate(147.421875,194.609375)"/>
<path d="M0 0 C6.75 0.875 6.75 0.875 9 2 C9 2.99 9 3.98 9 5 C7.02 5.66 5.04 6.32 3 7 C3 5.35 3 3.7 3 2 C2.01 2 1.02 2 0 2 C0 1.34 0 0.68 0 0 Z " fill="#CE4D13" transform="translate(113,241)"/>
<path d="M0 0 C1.15957207 3.47871621 0.77456651 4.34219645 -0.4375 7.6875 C-0.72496094 8.49574219 -1.01242187 9.30398437 -1.30859375 10.13671875 C-1.53675781 10.75160156 -1.76492188 11.36648437 -2 12 C-2.99 11.67 -3.98 11.34 -5 11 C-5.3125 8.3125 -5.3125 8.3125 -5 5 C-2.5 2.125 -2.5 2.125 0 0 Z " fill="#E75310" transform="translate(397,140)"/>
<path d="M0 0 C5.03985731 0.44469329 7.37634988 2.71343362 11 6 C10.34 7.32 9.68 8.64 9 10 C8.01 9.34 7.02 8.68 6 8 C6.33 6.68 6.66 5.36 7 4 C4.03 3.505 4.03 3.505 1 3 C0.67 2.01 0.34 1.02 0 0 Z " fill="#B34513" transform="translate(225,196)"/>
<path d="M0 0 C0.99 0 1.98 0 3 0 C3 0.66 3 1.32 3 2 C0.8828125 3.5078125 0.8828125 3.5078125 -1.875 5.125 C-2.77992188 5.66382813 -3.68484375 6.20265625 -4.6171875 6.7578125 C-7 8 -7 8 -9 8 C-9 6.68 -9 5.36 -9 4 C-8.43410156 3.79503906 -7.86820312 3.59007812 -7.28515625 3.37890625 C-6.55167969 3.10949219 -5.81820313 2.84007812 -5.0625 2.5625 C-4.33160156 2.29566406 -3.60070312 2.02882813 -2.84765625 1.75390625 C-1.01694322 1.14613052 -1.01694322 1.14613052 0 0 Z " fill="#B24815" transform="translate(349,329)"/>
<path d="M0 0 C0.66 0.33 1.32 0.66 2 1 C-3.9021475 5.95237664 -11.54072455 6.32431632 -19 6 C-15.74073398 4.18580614 -12.55938553 3.29472446 -8.9375 2.4375 C-5.90205036 1.71334452 -2.96132351 0.98710784 0 0 Z " fill="#933F16" transform="translate(270,247)"/>
<path d="M0 0 C1.94335496 2.41368821 2.94806469 3.70786388 3.5 6.8125 C2.82380636 11.12323445 0.73843726 13.69431502 -2 17 C-2.33 16.01 -2.66 15.02 -3 14 C-2.52949219 13.38640625 -2.05898438 12.7728125 -1.57421875 12.140625 C0.39008712 9.46955896 0.31653516 8.01889068 0.1875 4.75 C0.16042969 3.85796875 0.13335937 2.9659375 0.10546875 2.046875 C0.07066406 1.37140625 0.03585937 0.6959375 0 0 Z " fill="#963E18" transform="translate(326,239)"/>
<path d="M0 0 C0.99 0.495 0.99 0.495 2 1 C2 1.66 2 2.32 2 3 C2.66 3 3.32 3 4 3 C4 3.66 4 4.32 4 5 C4.66 5 5.32 5 6 5 C6 5.66 6 6.32 6 7 C6.99 7.33 7.98 7.66 9 8 C8.01 8.66 7.02 9.32 6 10 C3.3125 9.125 3.3125 9.125 1 8 C0.67 5.36 0.34 2.72 0 0 Z " fill="#BC4311" transform="translate(317,230)"/>
<path d="M0 0 C1.32 0 2.64 0 4 0 C4 0.66 4 1.32 4 2 C-5.22551253 7.55580866 -5.22551253 7.55580866 -11 8 C-10 6 -10 6 -7.1875 5 C-6.135625 4.67 -5.08375 4.34 -4 4 C-2.65278717 3.36184656 -1.31252882 2.70674629 0 2 C0 1.34 0 0.68 0 0 Z " fill="#A64414" transform="translate(433,157)"/>
<path d="M0 0 C2.0625 0.4375 2.0625 0.4375 4 1 C-0.75 4 -0.75 4 -3 4 C-3 4.66 -3 5.32 -3 6 C-5.64 6 -8.28 6 -11 6 C-8.90464017 3.90464017 -7.68072225 3.38841733 -4.9375 2.4375 C-2.23198802 1.60255667 -2.23198802 1.60255667 0 0 Z " fill="#A84519" transform="translate(311,313)"/>
<path d="M0 0 C0.66 0.33 1.32 0.66 2 1 C-0.18162436 5.48445006 -2.31237436 7.27801507 -7 9 C-9.19140625 8.5703125 -9.19140625 8.5703125 -11 8 C-9.54550599 6.9944239 -8.08627557 5.99569565 -6.625 5 C-5.40683594 4.1646875 -5.40683594 4.1646875 -4.1640625 3.3125 C-2 2 -2 2 0 2 C0 1.34 0 0.68 0 0 Z " fill="#9A4016" transform="translate(293,233)"/>
<path d="M0 0 C0.33 0 0.66 0 1 0 C1 1.98 1 3.96 1 6 C0.01 6 -0.98 6 -2 6 C-2.061875 6.78375 -2.12375 7.5675 -2.1875 8.375 C-2.5896875 9.674375 -2.5896875 9.674375 -3 11 C-5.5625 12.3125 -5.5625 12.3125 -8 13 C-5.49898422 8.53390039 -2.95726361 4.18095889 0 0 Z " fill="#AC4313" transform="translate(361,270)"/>
<path d="M0 0 C0.99 0 1.98 0 3 0 C1.63088196 3.1489715 0.1247864 5.0478487 -2.5 7.25 C-3.41265625 8.03117187 -3.41265625 8.03117187 -4.34375 8.828125 C-6 10 -6 10 -8 10 C-7.67 9.01 -7.34 8.02 -7 7 C-6.34 7 -5.68 7 -5 7 C-5 6.01 -5 5.02 -5 4 C-3.35 3.67 -1.7 3.34 0 3 C0 2.01 0 1.02 0 0 Z " fill="#B94D1C" transform="translate(368,313)"/>
<path d="M0 0 C1.32 0.66 2.64 1.32 4 2 C2.76055724 2.86941494 1.50792941 3.72005457 0.25 4.5625 C-0.44609375 5.03816406 -1.1421875 5.51382812 -1.859375 6.00390625 C-4 7 -4 7 -6.265625 6.65234375 C-6.83796875 6.43707031 -7.4103125 6.22179687 -8 6 C-7.34 6 -6.68 6 -6 6 C-5.67 4.68 -5.34 3.36 -5 2 C-3.35 2 -1.7 2 0 2 C0 1.34 0 0.68 0 0 Z " fill="#C44F17" transform="translate(307,265)"/>
<path d="M0 0 C0.99 0.33 1.98 0.66 3 1 C1.54712339 2.33927721 0.08752741 3.67126847 -1.375 5 C-2.18710937 5.7425 -2.99921875 6.485 -3.8359375 7.25 C-6 9 -6 9 -8 9 C-8 7.68 -8 6.36 -8 5 C-6.35 5 -4.7 5 -3 5 C-2.690625 4.360625 -2.38125 3.72125 -2.0625 3.0625 C-1 1 -1 1 0 0 Z " fill="#A54117" transform="translate(320,256)"/>
<path d="M0 0 C-0.1875 1.875 -0.1875 1.875 -1 4 C-3.3125 5.375 -3.3125 5.375 -6 6 C-8.16796875 5.0390625 -8.16796875 5.0390625 -10 4 C-8.71086513 3.32845067 -7.41859796 2.66291141 -6.125 2 C-5.40570313 1.62875 -4.68640625 1.2575 -3.9453125 0.875 C-2 0 -2 0 0 0 Z " fill="#B24310" transform="translate(282,242)"/>
<path d="M0 0 C2.31 0.66 4.62 1.32 7 2 C7.33 3.98 7.66 5.96 8 8 C4.22699642 6.9802693 3.19793856 6.34127338 1.1875 2.875 C0.795625 1.92625 0.40375 0.9775 0 0 Z " fill="#C94912" transform="translate(114,266)"/>
<path d="M0 0 C0.66 0 1.32 0 2 0 C2 0.66 2 1.32 2 2 C2.5775 2.12375 3.155 2.2475 3.75 2.375 C6.02335767 3.00648824 7.9253529 3.88858191 10 5 C10 5.66 10 6.32 10 7 C5.45251397 7.36871508 5.45251397 7.36871508 3.3125 5.625 C2.879375 5.08875 2.44625 4.5525 2 4 C1.34 3.34 0.68 2.68 0 2 C0 1.34 0 0.68 0 0 Z " fill="#B24914" transform="translate(112,302)"/>
<path d="M0 0 C0.99 0 1.98 0 3 0 C3.33 3.3 3.66 6.6 4 10 C3.01 10.495 3.01 10.495 2 11 C1.77213542 9.01432292 1.54427083 7.02864583 1.31640625 5.04296875 C1.02829265 2.80603607 1.02829265 2.80603607 0 0 Z " fill="#E4540D" transform="translate(323,239)"/>
<path d="M0 0 C0.99 0 1.98 0 3 0 C3.33 3.96 3.66 7.92 4 12 C1.07034088 9.07034088 0.05866431 6.319947 -0.125 2.1875 C-0.08375 1.465625 -0.0425 0.74375 0 0 Z " fill="#A64317" transform="translate(330,204)"/>
<path d="M0 0 C1.32 0.33 2.64 0.66 4 1 C1.36 3.64 -1.28 6.28 -4 9 C-4.33 7.68 -4.66 6.36 -5 5 C-2.8125 2.1875 -2.8125 2.1875 0 0 Z " fill="#9E4415" transform="translate(413,168)"/>
<path d="M0 0 C2.74148672 0.37047118 4.58593199 0.68587944 6.8125 2.375 C8 4 8 4 8 7 C7.01 7 6.02 7 5 7 C4.67 7.66 4.34 8.32 4 9 C4 7.35 4 5.7 4 4 C3.34 3.67 2.68 3.34 2 3 C2 2.34 2 1.68 2 1 C1.34 0.67 0.68 0.34 0 0 Z " fill="#BC4916" transform="translate(430,128)"/>
<path d="M0 0 C2.1640625 -0.29296875 2.1640625 -0.29296875 4.625 -0.1875 C5.44226563 -0.16042969 6.25953125 -0.13335937 7.1015625 -0.10546875 C8.04128906 -0.05326172 8.04128906 -0.05326172 9 0 C9.33 0.66 9.66 1.32 10 2 C4.06 2.495 4.06 2.495 -2 3 C-1.34 2.01 -0.68 1.02 0 0 Z " fill="#E25516" transform="translate(381,267)"/>
<path d="M0 0 C2.3431213 0.25561323 4.67843403 0.59270772 7 1 C7.33 1.66 7.66 2.32 8 3 C8.99 3.66 9.98 4.32 11 5 C8 6 8 6 4.8125 4.5625 C3.884375 4.046875 2.95625 3.53125 2 3 C2 2.34 2 1.68 2 1 C1.34 0.67 0.68 0.34 0 0 Z " fill="#AC4617" transform="translate(345,229)"/>
<path d="M0 0 C-0.21484375 1.890625 -0.21484375 1.890625 -1 4 C-3.06640625 5.046875 -3.06640625 5.046875 -5.5625 5.75 C-6.80193359 6.11351562 -6.80193359 6.11351562 -8.06640625 6.484375 C-9.02353516 6.73960937 -9.02353516 6.73960937 -10 7 C-3.18421053 0 -3.18421053 0 0 0 Z " fill="#AB4214" transform="translate(305,226)"/>
<path d="M0 0 C1.65 0 3.3 0 5 0 C5.33 0.66 5.66 1.32 6 2 C5.67 2.99 5.34 3.98 5 5 C6.32 5.33 7.64 5.66 9 6 C9 6.66 9 7.32 9 8 C4.30769231 6.51821862 4.30769231 6.51821862 2.8125 4 C2.544375 3.34 2.27625 2.68 2 2 C1.34 1.34 0.68 0.68 0 0 Z " fill="#C64E14" transform="translate(96,321)"/>
<path d="M0 0 C-0.33 0.99 -0.66 1.98 -1 3 C-1.99 3.33 -2.98 3.66 -4 4 C-5.68538601 5.99665314 -5.68538601 5.99665314 -7 8 C-7.99 7.67 -8.98 7.34 -10 7 C-3.18421053 0 -3.18421053 0 0 0 Z " fill="#A1431C" transform="translate(348,171)"/>
<path d="M0 0 C3.77545388 1.09068668 6.47043472 1.9083091 9 5 C8.67 5.66 8.34 6.32 8 7 C7.01 7 6.02 7 5 7 C5 6.01 5 5.02 5 4 C4.34 4 3.68 4 3 4 C3 3.34 3 2.68 3 2 C2.01 1.67 1.02 1.34 0 1 C0 0.67 0 0.34 0 0 Z " fill="#9B3D15" transform="translate(390,267)"/>
<path d="M0 0 C-0.33 0.94875 -0.66 1.8975 -1 2.875 C-2.10159191 5.77062452 -2.10159191 5.77062452 -2 8 C-1.34 8 -0.68 8 0 8 C-0.33 8.66 -0.66 9.32 -1 10 C-1.99 9.34 -2.98 8.68 -4 8 C-4.1875 4.375 -4.1875 4.375 -4 1 C-2 0 -2 0 0 0 Z " fill="#A74317" transform="translate(407,178)"/>
<path d="M0 0 C1.98 0 3.96 0 6 0 C6 0.33 6 0.66 6 1 C4.35 1 2.7 1 1 1 C1 1.99 1 2.98 1 4 C-1.31 4.33 -3.62 4.66 -6 5 C-5.34 4.01 -4.68 3.02 -4 2 C-2.68 2 -1.36 2 0 2 C0 1.34 0 0.68 0 0 Z " fill="#C2501B" transform="translate(304,349)"/>
<path d="M0 0 C3.54971796 0.60852308 6.76693609 1.38346804 10 3 C10.33 3.99 10.66 4.98 11 6 C6.95743617 4.77782954 3.50711041 3.37245704 0 1 C0 0.67 0 0.34 0 0 Z " fill="#9D3F15" transform="translate(122,274)"/>
<path d="M0 0 C-6.625 4 -6.625 4 -10 4 C-10 3.34 -10 2.68 -10 2 C-3.375 -1.125 -3.375 -1.125 0 0 Z " fill="#AE4D18" transform="translate(340,338)"/>
<path d="M0 0 C0.66 0.33 1.32 0.66 2 1 C1.67 1.99 1.34 2.98 1 4 C0.01 4.33 -0.98 4.66 -2 5 C-2.66 5.66 -3.32 6.32 -4 7 C-4.99 6.34 -5.98 5.68 -7 5 C-4.69 3.35 -2.38 1.7 0 0 Z " fill="#9E4212" transform="translate(334,300)"/>
<path d="M0 0 C0.99 0.33 1.98 0.66 3 1 C-0.465 3.97 -0.465 3.97 -4 7 C-4.33 6.34 -4.66 5.68 -5 5 C-3.35 3.35 -1.7 1.7 0 0 Z " fill="#E25514" transform="translate(298,231)"/>
<path d="M0 0 C0.66 0.33 1.32 0.66 2 1 C0.8125 3.4375 0.8125 3.4375 -1 6 C-3.6875 6.8125 -3.6875 6.8125 -6 7 C-4.02 4.69 -2.04 2.38 0 0 Z " fill="#A64215" transform="translate(404,133)"/>
<path d="M0 0 C0.99 0.33 1.98 0.66 3 1 C2.6875 2.875 2.6875 2.875 2 5 C1.01 5.66 0.02 6.32 -1 7 C-1.66 5.35 -2.32 3.7 -3 2 C-2.01 2 -1.02 2 0 2 C0 1.34 0 0.68 0 0 Z " fill="#C94D10" transform="translate(373,306)"/>
<path d="M0 0 C0.33 0.99 0.66 1.98 1 3 C-0.40445835 5.2636564 -2.1967913 7.0208685 -4 9 C-4 5.28703828 -2.65223411 2.65223411 0 0 Z " fill="#963B15" transform="translate(337,179)"/>
<path d="M0 0 C3.34373475 0.55728913 6.03312999 1.35173889 9 3 C9 3.66 9 4.32 9 5 C5.9168649 3.80100302 2.93720508 2.52299523 0 1 C0 0.67 0 0.34 0 0 Z " fill="#A04618" transform="translate(113,334)"/>
<path d="M0 0 C1.32 0.66 2.64 1.32 4 2 C2.75 3.5 2.75 3.5 1 5 C-0.32 5 -1.64 5 -3 5 C-1.125 1.125 -1.125 1.125 0 0 Z " fill="#AC4111" transform="translate(365,265)"/>
<path d="M0 0 C0.33 0.99 0.66 1.98 1 3 C1.66 3.66 2.32 4.32 3 5 C1.35 5 -0.3 5 -2 5 C-2.33 3.68 -2.66 2.36 -3 1 C-2.01 0.67 -1.02 0.34 0 0 Z " fill="#EB5411" transform="translate(141,341)"/>
<path d="M0 0 C2.375 0.1875 2.375 0.1875 5 1 C6.3125 3.5625 6.3125 3.5625 7 6 C5.83054208 5.19152271 4.66449539 4.37810888 3.5 3.5625 C2.8503125 3.11003906 2.200625 2.65757812 1.53125 2.19140625 C1.0259375 1.79824219 0.520625 1.40507812 0 1 C0 0.67 0 0.34 0 0 Z " fill="#A63E10" transform="translate(84,313)"/>
<path d="M0 0 C0 1.98 0 3.96 0 6 C-0.66 6 -1.32 6 -2 6 C-2 5.34 -2 4.68 -2 4 C-2.99 3.67 -3.98 3.34 -5 3 C-2.25 0 -2.25 0 0 0 Z " fill="#B74711" transform="translate(100,252)"/>
<path d="M0 0 C0.33 0.99 0.66 1.98 1 3 C0.01 3.33 -0.98 3.66 -2 4 C-2.73323796 6.01508358 -2.73323796 6.01508358 -3 8 C-3.66 7.67 -4.32 7.34 -5 7 C-3.70700306 4.11562221 -2.34058637 2.12780579 0 0 Z " fill="#9F3F15" transform="translate(397,140)"/>
</svg>
